<?xml version="1.0" encoding="UTF-8"?>
<!DOCTYPE svg PUBLIC "-//W3C//DTD SVG 1.1//EN" "http://www.w3.org/Graphics/SVG/1.1/DTD/svg11.dtd">
<svg xmlns="http://www.w3.org/2000/svg" version="1.1" width="245px" height="300px" style="shape-rendering:geometricPrecision; text-rendering:geometricPrecision; image-rendering:optimizeQuality; fill-rule:evenodd; clip-rule:evenodd" xmlns:xlink="http://www.w3.org/1999/xlink">
<g><path style="opacity:0.853" fill="#67c5db" d="M 120.5,22.5 C 120.5,25.5 120.5,28.5 120.5,31.5C 117.907,32.7536 115.573,34.4202 113.5,36.5C 113.5,32.5 113.5,28.5 113.5,24.5C 115.588,23.0605 117.921,22.3939 120.5,22.5 Z"/></g>
<g><path style="opacity:0.919" fill="#63c5da" d="M 120.5,22.5 C 121.167,22.5 121.833,22.5 122.5,22.5C 122.5,25.1667 122.5,27.8333 122.5,30.5C 121.833,30.8333 121.167,31.1667 120.5,31.5C 120.5,28.5 120.5,25.5 120.5,22.5 Z"/></g>
<g><path style="opacity:0.89" fill="#5fc2d9" d="M 122.5,22.5 C 125.187,22.3359 127.854,22.5026 130.5,23C 131.416,23.2784 132.082,23.7784 132.5,24.5C 132.5,27.8333 132.5,31.1667 132.5,34.5C 129.593,32.1954 126.259,30.8621 122.5,30.5C 122.5,27.8333 122.5,25.1667 122.5,22.5 Z"/></g>
<g><path style="opacity:0.908" fill="#6cc7db" d="M 113.5,24.5 C 113.5,28.5 113.5,32.5 113.5,36.5C 112.167,40.5 112.167,44.5 113.5,48.5C 113.5,54.5 113.5,60.5 113.5,66.5C 111.485,69.8691 109.485,73.2024 107.5,76.5C 107.5,70.8333 107.5,65.1667 107.5,59.5C 108.405,58.0357 108.405,56.7024 107.5,55.5C 107.5,47.1667 107.5,38.8333 107.5,30.5C 108.596,27.6144 110.596,25.6144 113.5,24.5 Z"/></g>
<g><path style="opacity:0.901" fill="#5ac0d7" d="M 132.5,24.5 C 138.175,26.5003 141.508,30.5003 142.5,36.5C 142.5,43.5 142.5,50.5 142.5,57.5C 138.757,56.6823 135.424,57.6823 132.5,60.5C 132.5,57.1667 132.5,53.8333 132.5,50.5C 136.5,45.1667 136.5,39.8333 132.5,34.5C 132.5,31.1667 132.5,27.8333 132.5,24.5 Z"/></g>
<g><path style="opacity:0.921" fill="#70c8dc" d="M 107.5,30.5 C 107.5,38.8333 107.5,47.1667 107.5,55.5C 106.833,55.8333 106.167,56.1667 105.5,56.5C 105.5,49.1667 105.5,41.8333 105.5,34.5C 105.66,32.847 106.326,31.5137 107.5,30.5 Z"/></g>
<g><path style="opacity:0.831" fill="#72c8dd" d="M 105.5,34.5 C 105.5,41.8333 105.5,49.1667 105.5,56.5C 103.004,57.5804 100.67,58.9138 98.5,60.5C 98.5,57.1667 98.5,53.8333 98.5,50.5C 100.168,48.66 101.668,46.66 103,44.5C 103.149,40.8675 103.982,37.5341 105.5,34.5 Z"/></g>
<g><path style="opacity:0.85" fill="#55bdd5" d="M 142.5,36.5 C 143.188,42.8754 146.188,47.8754 151.5,51.5C 151.5,55.1667 151.5,58.8333 151.5,62.5C 148.661,60.5797 145.661,58.9131 142.5,57.5C 142.5,50.5 142.5,43.5 142.5,36.5 Z"/></g>
<g><path style="opacity:0.881" fill="#67c5db" d="M 113.5,48.5 C 115.555,50.5547 117.888,52.2213 120.5,53.5C 120.5,56.1667 120.5,58.8333 120.5,61.5C 117.561,62.456 115.228,64.1226 113.5,66.5C 113.5,60.5 113.5,54.5 113.5,48.5 Z"/></g>
<g><path style="opacity:0.856" fill="#79cade" d="M 98.5,50.5 C 98.5,53.8333 98.5,57.1667 98.5,60.5C 96.1667,61.8333 93.8333,63.1667 91.5,64.5C 91.5,61.1667 91.5,57.8333 91.5,54.5C 93.3356,52.412 95.6689,51.0787 98.5,50.5 Z"/></g>
<g><path style="opacity:0.871" fill="#5fc2d9" d="M 132.5,50.5 C 132.5,53.8333 132.5,57.1667 132.5,60.5C 129.476,62.7757 126.143,63.1091 122.5,61.5C 122.5,59.1667 122.5,56.8333 122.5,54.5C 126.237,54.071 129.57,52.7377 132.5,50.5 Z"/></g>
<g><path style="opacity:0.843" fill="#51bcd3" d="M 151.5,51.5 C 152.5,51.8333 153.167,52.5 153.5,53.5C 153.5,56.8333 153.5,60.1667 153.5,63.5C 152.833,63.1667 152.167,62.8333 151.5,62.5C 151.5,58.8333 151.5,55.1667 151.5,51.5 Z"/></g>
<g><path style="opacity:0.867" fill="#63c5da" d="M 120.5,53.5 C 121.492,53.3284 122.158,53.6618 122.5,54.5C 122.5,56.8333 122.5,59.1667 122.5,61.5C 121.833,61.5 121.167,61.5 120.5,61.5C 120.5,58.8333 120.5,56.1667 120.5,53.5 Z"/></g>
<g><path style="opacity:0.861" fill="#4dbad3" d="M 153.5,53.5 C 156.76,54.7738 159.76,56.4405 162.5,58.5C 162.5,61.8333 162.5,65.1667 162.5,68.5C 159.339,67.0869 156.339,65.4203 153.5,63.5C 153.5,60.1667 153.5,56.8333 153.5,53.5 Z"/></g>
<g><path style="opacity:0.861" fill="#7fccdf" d="M 91.5,54.5 C 91.5,57.8333 91.5,61.1667 91.5,64.5C 89.0616,66.2672 86.395,67.6006 83.5,68.5C 83.5,65.1667 83.5,61.8333 83.5,58.5C 85.9384,56.7328 88.605,55.3994 91.5,54.5 Z"/></g>
<g><path style="opacity:0.859" fill="#47b8d1" d="M 162.5,58.5 C 164.996,59.5804 167.33,60.9138 169.5,62.5C 169.5,65.8333 169.5,69.1667 169.5,72.5C 166.996,71.4161 164.663,70.0828 162.5,68.5C 162.5,65.1667 162.5,61.8333 162.5,58.5 Z"/></g>
<g><path style="opacity:0.904" fill="#70c8dc" d="M 107.5,59.5 C 107.5,65.1667 107.5,70.8333 107.5,76.5C 106.293,79.8525 106.293,83.1858 107.5,86.5C 107.5,93.5 107.5,100.5 107.5,107.5C 107.167,108.5 106.5,109.167 105.5,109.5C 105.5,93.8333 105.5,78.1667 105.5,62.5C 105.427,60.9731 106.094,59.9731 107.5,59.5 Z"/></g>
<g><path style="opacity:0.874" fill="#84cde0" d="M 83.5,58.5 C 83.5,61.8333 83.5,65.1667 83.5,68.5C 82.1007,69.8897 80.4341,70.8897 78.5,71.5C 78.5,68.1667 78.5,64.8333 78.5,61.5C 80.3325,60.7515 81.9991,59.7515 83.5,58.5 Z"/></g>
<g><path style="opacity:0.84" fill="#88cfe0" d="M 78.5,61.5 C 78.5,64.8333 78.5,68.1667 78.5,71.5C 77.205,72.4884 75.8717,73.4884 74.5,74.5C 74.5,71.1667 74.5,67.8333 74.5,64.5C 75.4363,63.0256 76.7697,62.0256 78.5,61.5 Z"/></g>
<g><path style="opacity:0.915" fill="#73c8dd" d="M 105.5,62.5 C 105.5,78.1667 105.5,93.8333 105.5,109.5C 104.008,112.323 101.674,113.99 98.5,114.5C 98.5,111.167 98.5,107.833 98.5,104.5C 103.82,98.7931 103.82,93.1264 98.5,87.5C 98.5,83.1667 98.5,78.8333 98.5,74.5C 100.848,70.4645 103.182,66.4645 105.5,62.5 Z"/></g>
<g><path style="opacity:0.855" fill="#41b6cf" d="M 169.5,62.5 C 172.661,63.9131 175.661,65.5797 178.5,67.5C 178.5,70.8333 178.5,74.1667 178.5,77.5C 175.24,76.2262 172.24,74.5595 169.5,72.5C 169.5,69.1667 169.5,65.8333 169.5,62.5 Z"/></g>
<g><path style="opacity:0.858" fill="#8cd0e2" d="M 74.5,64.5 C 74.5,67.8333 74.5,71.1667 74.5,74.5C 70.8333,76.5 67.1667,78.5 63.5,80.5C 63.5,77.1667 63.5,73.8333 63.5,70.5C 66.678,67.7417 70.3447,65.7417 74.5,64.5 Z"/></g>
<g><path style="opacity:0.848" fill="#3cb5ce" d="M 178.5,67.5 C 179.71,67.9321 180.71,68.5987 181.5,69.5C 181.5,72.8333 181.5,76.1667 181.5,79.5C 180.29,79.0679 179.29,78.4013 178.5,77.5C 178.5,74.1667 178.5,70.8333 178.5,67.5 Z"/></g>
<g><path style="opacity:0.857" fill="#39b4cd" d="M 181.5,69.5 C 183.368,70.2632 185.035,71.2632 186.5,72.5C 186.5,75.8333 186.5,79.1667 186.5,82.5C 184.632,81.7368 182.965,80.7368 181.5,79.5C 181.5,76.1667 181.5,72.8333 181.5,69.5 Z"/></g>
<g><path style="opacity:0.858" fill="#92d2e3" d="M 63.5,70.5 C 63.5,73.8333 63.5,77.1667 63.5,80.5C 60.6339,82.4325 57.6339,84.0991 54.5,85.5C 54.5,82.1667 54.5,78.8333 54.5,75.5C 57.331,73.5832 60.331,71.9166 63.5,70.5 Z"/></g>
<g><path style="opacity:0.857" fill="#35b2cc" d="M 186.5,72.5 C 188.674,72.7497 190.341,73.7497 191.5,75.5C 191.5,78.8333 191.5,82.1667 191.5,85.5C 189.668,84.7515 188.001,83.7515 186.5,82.5C 186.5,79.1667 186.5,75.8333 186.5,72.5 Z"/></g>
<g><path style="opacity:0.895" fill="#78cade" d="M 98.5,74.5 C 98.5,78.8333 98.5,83.1667 98.5,87.5C 96.5395,85.6878 94.2061,84.6878 91.5,84.5C 91.5,81.5 91.5,78.5 91.5,75.5C 93.861,75.3259 96.1944,74.9926 98.5,74.5 Z"/></g>
<g><path style="opacity:0.9" fill="#a8dae7" d="M 25.5,75.5 C 25.5,78.5 25.5,81.5 25.5,84.5C 23.6675,85.2485 22.0009,86.2485 20.5,87.5C 20.5,84.1667 20.5,80.8333 20.5,77.5C 22.0276,76.6908 23.6943,76.0241 25.5,75.5 Z"/></g>
<g><path style="opacity:0.861" fill="#a5d8e7" d="M 25.5,75.5 C 27.9496,75.298 30.283,75.6314 32.5,76.5C 32.5,79.5 32.5,82.5 32.5,85.5C 30.283,84.6314 27.9496,84.298 25.5,84.5C 25.5,81.5 25.5,78.5 25.5,75.5 Z"/></g>
<g><path style="opacity:0.865" fill="#96d4e3" d="M 54.5,75.5 C 54.5,78.8333 54.5,82.1667 54.5,85.5C 53.4863,86.6737 52.153,87.3404 50.5,87.5C 50.5,84.1667 50.5,80.8333 50.5,77.5C 51.6049,76.3995 52.9382,75.7329 54.5,75.5 Z"/></g>
<g><path style="opacity:0.875" fill="#7fccdf" d="M 91.5,75.5 C 91.5,78.5 91.5,81.5 91.5,84.5C 88.6726,84.5838 86.006,85.2504 83.5,86.5C 83.5,83.5 83.5,80.5 83.5,77.5C 86.0667,76.525 88.7334,75.8583 91.5,75.5 Z"/></g>
<g><path style="opacity:0.876" fill="#31b2cc" d="M 191.5,75.5 C 192.492,75.3284 193.158,75.6618 193.5,76.5C 193.5,79.8333 193.5,83.1667 193.5,86.5C 192.508,86.6716 191.842,86.3382 191.5,85.5C 191.5,82.1667 191.5,78.8333 191.5,75.5 Z"/></g>
<g><path style="opacity:0.868" fill="#23adc8" d="M 213.5,75.5 C 213.5,78.5 213.5,81.5 213.5,84.5C 210.55,85.3084 207.883,86.6418 205.5,88.5C 205.5,84.8333 205.5,81.1667 205.5,77.5C 208.067,76.525 210.733,75.8583 213.5,75.5 Z"/></g>
<g><path style="opacity:0.873" fill="#1cabc6" d="M 213.5,75.5 C 216.206,75.5751 218.873,75.9084 221.5,76.5C 221.5,79.8333 221.5,83.1667 221.5,86.5C 219.087,84.9493 216.421,84.2826 213.5,84.5C 213.5,81.5 213.5,78.5 213.5,75.5 Z"/></g>
<g><path style="opacity:0.853" fill="#9fd6e5" d="M 32.5,76.5 C 36.2513,77.2102 39.918,78.2102 43.5,79.5C 43.5,89.1667 43.5,98.8333 43.5,108.5C 39.8538,112.449 36.6871,116.782 34,121.5C 33.8333,130.833 33.6667,140.167 33.5,149.5C 33.3812,160.222 33.8812,170.889 35,181.5C 38.3261,178.164 41.1594,174.498 43.5,170.5C 43.5,186.5 43.5,202.5 43.5,218.5C 39.8212,218.724 36.1545,219.058 32.5,219.5C 32.5,216.5 32.5,213.5 32.5,210.5C 39.8299,206.089 41.3299,200.089 37,192.5C 35.3853,191.614 33.8853,190.614 32.5,189.5C 32.5,161.833 32.5,134.167 32.5,106.5C 39.8299,102.089 41.3299,96.0888 37,88.5C 35.7292,87.1175 34.2292,86.1175 32.5,85.5C 32.5,82.5 32.5,79.5 32.5,76.5 Z"/></g>
<g><path style="opacity:0.941" fill="#2eb0ca" d="M 193.5,76.5 C 195.579,76.9707 197.579,77.6373 199.5,78.5C 199.5,89.5 199.5,100.5 199.5,111.5C 197.5,112.167 195.5,112.833 193.5,113.5C 193.5,110.167 193.5,106.833 193.5,103.5C 194.625,102.348 194.625,101.348 193.5,100.5C 193.5,97.1667 193.5,93.8333 193.5,90.5C 195.836,89.4061 195.836,88.0728 193.5,86.5C 193.5,83.1667 193.5,79.8333 193.5,76.5 Z"/></g>
<g><path style="opacity:0.873" fill="#15a9c4" d="M 221.5,76.5 C 224.54,77.6803 227.206,79.347 229.5,81.5C 229.5,90.8333 229.5,100.167 229.5,109.5C 225.932,113.375 223.265,117.708 221.5,122.5C 221.5,116.833 221.5,111.167 221.5,105.5C 224.068,102.867 225.734,99.7001 226.5,96C 225.734,92.2999 224.068,89.1332 221.5,86.5C 221.5,83.1667 221.5,79.8333 221.5,76.5 Z"/></g>
<g><path style="opacity:0.893" fill="#acdbe8" d="M 20.5,77.5 C 20.5,80.8333 20.5,84.1667 20.5,87.5C 15.4531,93.112 15.4531,98.7787 20.5,104.5C 20.5,108.167 20.5,111.833 20.5,115.5C 16.5,113.5 13.5,110.5 11.5,106.5C 11.5,99.1667 11.5,91.8333 11.5,84.5C 13.5071,80.9846 16.5071,78.6513 20.5,77.5 Z"/></g>
<g><path style="opacity:0.935" fill="#99d5e5" d="M 50.5,77.5 C 50.5,80.8333 50.5,84.1667 50.5,87.5C 49.375,88.6522 49.375,89.6522 50.5,90.5C 50.5,94.1667 50.5,97.8333 50.5,101.5C 48.5,104.167 46.1667,106.5 43.5,108.5C 43.5,98.8333 43.5,89.1667 43.5,79.5C 45.9653,79.233 48.2986,78.5664 50.5,77.5 Z"/></g>
<g><path style="opacity:0.923" fill="#29afc9" d="M 205.5,77.5 C 205.5,81.1667 205.5,84.8333 205.5,88.5C 202.919,93.2017 202.919,97.8684 205.5,102.5C 205.5,105.833 205.5,109.167 205.5,112.5C 203.5,112.167 201.5,111.833 199.5,111.5C 199.5,100.5 199.5,89.5 199.5,78.5C 201.5,78.1667 203.5,77.8333 205.5,77.5 Z"/></g>
<g><path style="opacity:0.873" fill="#85cde0" d="M 83.5,77.5 C 83.5,80.5 83.5,83.5 83.5,86.5C 79.1801,91.4032 78.5134,96.7365 81.5,102.5C 81.5,108.833 81.5,115.167 81.5,121.5C 81.2503,123.674 80.2503,125.341 78.5,126.5C 78.5,110.833 78.5,95.1667 78.5,79.5C 80.0495,78.5592 81.7162,77.8925 83.5,77.5 Z"/></g>
<g><path style="opacity:0.923" fill="#88cfe0" d="M 78.5,79.5 C 78.5,95.1667 78.5,110.833 78.5,126.5C 77.9213,129.331 76.588,131.664 74.5,133.5C 74.5,127.5 74.5,121.5 74.5,115.5C 75.5463,113.215 75.5463,110.882 74.5,108.5C 74.5,100.833 74.5,93.1667 74.5,85.5C 74.8449,82.8021 76.1782,80.8021 78.5,79.5 Z"/></g>
<g><path style="opacity:0.852" fill="#10a7c3" d="M 229.5,81.5 C 233.381,85.2833 235.048,89.95 234.5,95.5C 235.048,101.05 233.381,105.717 229.5,109.5C 229.5,100.167 229.5,90.8333 229.5,81.5 Z"/></g>
<g><path style="opacity:0.802" fill="#afdde9" d="M 11.5,84.5 C 11.5,91.8333 11.5,99.1667 11.5,106.5C 9.05755,103.535 8.05755,100.035 8.5,96C 8.10736,91.6839 9.10736,87.8506 11.5,84.5 Z"/></g>
<g><path style="opacity:0.883" fill="#8bd0e2" d="M 74.5,85.5 C 74.5,93.1667 74.5,100.833 74.5,108.5C 72.0835,103.748 68.4168,100.415 63.5,98.5C 63.5,96.1667 63.5,93.8333 63.5,91.5C 67.909,90.7967 71.5757,88.7967 74.5,85.5 Z"/></g>
<g><path style="opacity:0.884" fill="#6cc7db" d="M 107.5,86.5 C 109.228,88.2255 111.228,89.5589 113.5,90.5C 113.5,93.8333 113.5,97.1667 113.5,100.5C 111.263,102.647 109.263,104.98 107.5,107.5C 107.5,100.5 107.5,93.5 107.5,86.5 Z"/></g>
<g><path style="opacity:0.871" fill="#96d4e3" d="M 50.5,90.5 C 51.8333,90.5 53.1667,90.5 54.5,90.5C 54.5,93.5 54.5,96.5 54.5,99.5C 53.4863,100.674 52.153,101.34 50.5,101.5C 50.5,97.8333 50.5,94.1667 50.5,90.5 Z"/></g>
<g><path style="opacity:0.891" fill="#93d2e3" d="M 54.5,90.5 C 57.4552,91.1587 60.4552,91.4921 63.5,91.5C 63.5,93.8333 63.5,96.1667 63.5,98.5C 60.4552,98.5079 57.4552,98.8413 54.5,99.5C 54.5,96.5 54.5,93.5 54.5,90.5 Z"/></g>
<g><path style="opacity:0.878" fill="#67c5db" d="M 113.5,90.5 C 115.833,90.5 118.167,90.5 120.5,90.5C 120.5,93.5 120.5,96.5 120.5,99.5C 118.097,99.448 115.764,99.7814 113.5,100.5C 113.5,97.1667 113.5,93.8333 113.5,90.5 Z"/></g>
<g><path style="opacity:0.868" fill="#63c5da" d="M 120.5,90.5 C 121.167,90.5 121.833,90.5 122.5,90.5C 122.5,93.5 122.5,96.5 122.5,99.5C 121.833,99.5 121.167,99.5 120.5,99.5C 120.5,96.5 120.5,93.5 120.5,90.5 Z"/></g>
<g><path style="opacity:0.931" fill="#5fc3d9" d="M 122.5,90.5 C 125.786,91.2071 129.119,91.5405 132.5,91.5C 132.5,94.1667 132.5,96.8333 132.5,99.5C 129.167,99.5 125.833,99.5 122.5,99.5C 122.5,96.5 122.5,93.5 122.5,90.5 Z"/></g>
<g><path style="opacity:0.884" fill="#40b6cf" d="M 178.5,90.5 C 178.5,93.5 178.5,96.5 178.5,99.5C 175.5,99.5 172.5,99.5 169.5,99.5C 169.5,96.8333 169.5,94.1667 169.5,91.5C 172.455,90.8413 175.455,90.5079 178.5,90.5 Z"/></g>
<g><path style="opacity:0.854" fill="#3cb5ce" d="M 178.5,90.5 C 179.5,90.5 180.5,90.5 181.5,90.5C 181.5,93.5 181.5,96.5 181.5,99.5C 180.5,99.5 179.5,99.5 178.5,99.5C 178.5,96.5 178.5,93.5 178.5,90.5 Z"/></g>
<g><path style="opacity:0.861" fill="#39b4cd" d="M 181.5,90.5 C 183.167,90.5 184.833,90.5 186.5,90.5C 186.5,93.5 186.5,96.5 186.5,99.5C 184.833,99.5 183.167,99.5 181.5,99.5C 181.5,96.5 181.5,93.5 181.5,90.5 Z"/></g>
<g><path style="opacity:0.875" fill="#35b2cc" d="M 186.5,90.5 C 188.167,90.5 189.833,90.5 191.5,90.5C 191.5,93.5 191.5,96.5 191.5,99.5C 189.833,99.5 188.167,99.5 186.5,99.5C 186.5,96.5 186.5,93.5 186.5,90.5 Z"/></g>
<g><path style="opacity:0.904" fill="#31b2cc" d="M 191.5,90.5 C 192.167,90.5 192.833,90.5 193.5,90.5C 193.5,93.8333 193.5,97.1667 193.5,100.5C 192.833,100.167 192.167,99.8333 191.5,99.5C 191.5,96.5 191.5,93.5 191.5,90.5 Z"/></g>
<g><path style="opacity:0.953" fill="#5ac0d7" d="M 132.5,91.5 C 135.833,91.5 139.167,91.5 142.5,91.5C 142.5,94.1667 142.5,96.8333 142.5,99.5C 139.167,99.5 135.833,99.5 132.5,99.5C 132.5,96.8333 132.5,94.1667 132.5,91.5 Z"/></g>
<g><path style="opacity:0.95" fill="#55bdd5" d="M 142.5,91.5 C 145.5,91.5 148.5,91.5 151.5,91.5C 151.5,94.1667 151.5,96.8333 151.5,99.5C 148.5,99.5 145.5,99.5 142.5,99.5C 142.5,96.8333 142.5,94.1667 142.5,91.5 Z"/></g>
<g><path style="opacity:0.946" fill="#51bcd3" d="M 151.5,91.5 C 152.167,91.5 152.833,91.5 153.5,91.5C 153.5,94.1667 153.5,96.8333 153.5,99.5C 152.833,99.5 152.167,99.5 151.5,99.5C 151.5,96.8333 151.5,94.1667 151.5,91.5 Z"/></g>
<g><path style="opacity:0.949" fill="#4dbad3" d="M 153.5,91.5 C 156.5,91.5 159.5,91.5 162.5,91.5C 162.5,94.1667 162.5,96.8333 162.5,99.5C 159.5,99.5 156.5,99.5 153.5,99.5C 153.5,96.8333 153.5,94.1667 153.5,91.5 Z"/></g>
<g><path style="opacity:0.953" fill="#47b8d1" d="M 162.5,91.5 C 164.833,91.5 167.167,91.5 169.5,91.5C 169.5,94.1667 169.5,96.8333 169.5,99.5C 167.167,99.5 164.833,99.5 162.5,99.5C 162.5,96.8333 162.5,94.1667 162.5,91.5 Z"/></g>
<g><path style="opacity:0.849" fill="#84cddf" d="M 81.5,102.5 C 82.5,102.833 83.1667,103.5 83.5,104.5C 83.5,109.167 83.5,113.833 83.5,118.5C 83.573,120.027 82.9063,121.027 81.5,121.5C 81.5,115.167 81.5,108.833 81.5,102.5 Z"/></g>
<g><path style="opacity:0.874" fill="#31b2cc" d="M 193.5,103.5 C 193.5,106.833 193.5,110.167 193.5,113.5C 193.158,114.338 192.492,114.672 191.5,114.5C 191.5,111.167 191.5,107.833 191.5,104.5C 191.842,103.662 192.508,103.328 193.5,103.5 Z"/></g>
<g><path style="opacity:0.847" fill="#a8dae7" d="M 20.5,104.5 C 21.1667,104.833 21.8333,105.167 22.5,105.5C 22.5,109.5 22.5,113.5 22.5,117.5C 21.5,117.167 20.8333,116.5 20.5,115.5C 20.5,111.833 20.5,108.167 20.5,104.5 Z"/></g>
<g><path style="opacity:0.88" fill="#80ccdf" d="M 83.5,104.5 C 85.8292,106.278 88.4958,107.278 91.5,107.5C 91.5,110.5 91.5,113.5 91.5,116.5C 88.5794,116.283 85.9128,116.949 83.5,118.5C 83.5,113.833 83.5,109.167 83.5,104.5 Z"/></g>
<g><path style="opacity:0.86" fill="#79cade" d="M 98.5,104.5 C 98.5,107.833 98.5,111.167 98.5,114.5C 96.4006,115.612 94.0673,116.279 91.5,116.5C 91.5,113.5 91.5,110.5 91.5,107.5C 93.9154,106.695 96.2487,105.695 98.5,104.5 Z"/></g>
<g><path style="opacity:0.854" fill="#35b2cc" d="M 191.5,104.5 C 191.5,107.833 191.5,111.167 191.5,114.5C 190.341,116.25 188.674,117.25 186.5,117.5C 186.5,114.167 186.5,110.833 186.5,107.5C 187.965,106.263 189.632,105.263 191.5,104.5 Z"/></g>
<g><path style="opacity:0.799" fill="#22adc8" d="M 205.5,102.5 C 207.655,104.989 210.322,106.656 213.5,107.5C 213.5,114.5 213.5,121.5 213.5,128.5C 212.681,125.695 212.181,122.695 212,119.5C 210.306,116.642 208.139,114.309 205.5,112.5C 205.5,109.167 205.5,105.833 205.5,102.5 Z"/></g>
<g><path style="opacity:0.641" fill="#a7dae7" d="M 22.5,105.5 C 23.391,106.11 24.391,106.443 25.5,106.5C 25.5,134.167 25.5,161.833 25.5,189.5C 24.391,189.557 23.391,189.89 22.5,190.5C 22.5,186.5 22.5,182.5 22.5,178.5C 22.9867,177.527 23.4867,176.527 24,175.5C 24.6667,157.167 24.6667,138.833 24,120.5C 23.4867,119.473 22.9867,118.473 22.5,117.5C 22.5,113.5 22.5,109.5 22.5,105.5 Z"/></g>
<g><path style="opacity:0.961" fill="#1cabc6" d="M 221.5,105.5 C 221.5,111.167 221.5,116.833 221.5,122.5C 221.5,139.167 221.5,155.833 221.5,172.5C 221.5,178.5 221.5,184.5 221.5,190.5C 218.888,189.629 216.221,188.963 213.5,188.5C 213.5,180.833 213.5,173.167 213.5,165.5C 213.5,153.167 213.5,140.833 213.5,128.5C 213.5,121.5 213.5,114.5 213.5,107.5C 216.327,107.416 218.994,106.75 221.5,105.5 Z"/></g>
<g><path style="opacity:0.989" fill="#a4d8e7" d="M 25.5,106.5 C 27.7922,107.686 30.1256,107.686 32.5,106.5C 32.5,134.167 32.5,161.833 32.5,189.5C 30.1256,188.314 27.7922,188.314 25.5,189.5C 25.5,161.833 25.5,134.167 25.5,106.5 Z"/></g>
<g><path style="opacity:0.869" fill="#39b4cd" d="M 186.5,107.5 C 186.5,110.833 186.5,114.167 186.5,117.5C 185.035,118.737 183.368,119.737 181.5,120.5C 181.5,117.167 181.5,113.833 181.5,110.5C 182.965,109.263 184.632,108.263 186.5,107.5 Z"/></g>
<g><path style="opacity:0.834" fill="#3cb5ce" d="M 181.5,110.5 C 181.5,113.833 181.5,117.167 181.5,120.5C 180.71,121.401 179.71,122.068 178.5,122.5C 178.5,119.167 178.5,115.833 178.5,112.5C 178.973,111.094 179.973,110.427 181.5,110.5 Z"/></g>
<g><path style="opacity:0.864" fill="#41b6cf" d="M 178.5,112.5 C 178.5,115.833 178.5,119.167 178.5,122.5C 175.339,123.913 172.339,125.58 169.5,127.5C 169.5,124.167 169.5,120.833 169.5,117.5C 172.008,115.076 175.008,113.41 178.5,112.5 Z"/></g>
<g><path style="opacity:0.869" fill="#8cd0e2" d="M 74.5,115.5 C 74.5,121.5 74.5,127.5 74.5,133.5C 71.5876,140.332 67.9209,146.666 63.5,152.5C 63.5,146.833 63.5,141.167 63.5,135.5C 67.1825,128.798 70.8491,122.132 74.5,115.5 Z"/></g>
<g><path style="opacity:0.861" fill="#47b8d1" d="M 169.5,117.5 C 169.5,120.833 169.5,124.167 169.5,127.5C 167.167,128.833 164.833,130.167 162.5,131.5C 162.5,128.167 162.5,124.833 162.5,121.5C 164.336,119.412 166.669,118.079 169.5,117.5 Z"/></g>
<g><path style="opacity:0.864" fill="#4dbad3" d="M 162.5,121.5 C 162.5,124.833 162.5,128.167 162.5,131.5C 159.661,133.42 156.661,135.087 153.5,136.5C 153.5,133.167 153.5,129.833 153.5,126.5C 156.24,124.44 159.24,122.774 162.5,121.5 Z"/></g>
<g><path style="opacity:0.864" fill="#67c5db" d="M 120.5,125.5 C 120.5,128.5 120.5,131.5 120.5,134.5C 117.568,135.8 115.234,137.8 113.5,140.5C 113.5,136.5 113.5,132.5 113.5,128.5C 115.751,127.305 118.085,126.305 120.5,125.5 Z"/></g>
<g><path style="opacity:0.873" fill="#63c5da" d="M 120.5,125.5 C 121.167,125.5 121.833,125.5 122.5,125.5C 122.5,128.5 122.5,131.5 122.5,134.5C 121.833,134.5 121.167,134.5 120.5,134.5C 120.5,131.5 120.5,128.5 120.5,125.5 Z"/></g>
<g><path style="opacity:0.865" fill="#5fc2d9" d="M 122.5,125.5 C 126.037,125.311 129.37,125.977 132.5,127.5C 132.5,131.167 132.5,134.833 132.5,138.5C 129.77,135.809 126.436,134.475 122.5,134.5C 122.5,131.5 122.5,128.5 122.5,125.5 Z"/></g>
<g><path style="opacity:0.829" fill="#51bcd3" d="M 153.5,126.5 C 153.5,129.833 153.5,133.167 153.5,136.5C 153.158,137.338 152.492,137.672 151.5,137.5C 151.5,134.167 151.5,130.833 151.5,127.5C 151.842,126.662 152.508,126.328 153.5,126.5 Z"/></g>
<g><path style="opacity:0.916" fill="#5ac0d7" d="M 132.5,127.5 C 135.387,130.052 138.72,131.718 142.5,132.5C 142.5,142.833 142.5,153.167 142.5,163.5C 139.201,162.253 135.867,162.253 132.5,163.5C 132.5,160.167 132.5,156.833 132.5,153.5C 136.367,148.576 136.367,143.576 132.5,138.5C 132.5,134.833 132.5,131.167 132.5,127.5 Z"/></g>
<g><path style="opacity:0.866" fill="#55bdd5" d="M 151.5,127.5 C 151.5,130.833 151.5,134.167 151.5,137.5C 144.086,140.665 141.92,145.998 145,153.5C 147.326,155.066 149.492,156.732 151.5,158.5C 151.5,161.833 151.5,165.167 151.5,168.5C 148.339,167.087 145.339,165.42 142.5,163.5C 142.5,153.167 142.5,142.833 142.5,132.5C 145.272,130.61 148.272,128.943 151.5,127.5 Z"/></g>
<g><path style="opacity:0.908" fill="#6cc7db" d="M 113.5,128.5 C 113.5,132.5 113.5,136.5 113.5,140.5C 112.242,144.2 112.242,147.866 113.5,151.5C 113.5,155.5 113.5,159.5 113.5,163.5C 111.621,162.659 109.621,162.325 107.5,162.5C 107.5,152.833 107.5,143.167 107.5,133.5C 108.891,131.11 110.891,129.443 113.5,128.5 Z"/></g>
<g><path style="opacity:0.925" fill="#70c8dc" d="M 107.5,133.5 C 107.5,143.167 107.5,152.833 107.5,162.5C 107.158,163.338 106.492,163.672 105.5,163.5C 105.5,154.833 105.5,146.167 105.5,137.5C 105.66,135.847 106.326,134.514 107.5,133.5 Z"/></g>
<g><path style="opacity:0.863" fill="#92d2e3" d="M 63.5,135.5 C 63.5,141.167 63.5,146.833 63.5,152.5C 61.0031,158.165 58.0031,163.498 54.5,168.5C 54.5,162.833 54.5,157.167 54.5,151.5C 56.9969,145.835 59.9969,140.502 63.5,135.5 Z"/></g>
<g><path style="opacity:0.841" fill="#72c8dd" d="M 105.5,137.5 C 105.5,146.167 105.5,154.833 105.5,163.5C 103.664,165.588 101.331,166.921 98.5,167.5C 98.5,164.167 98.5,160.833 98.5,157.5C 100.475,156.354 101.975,154.687 103,152.5C 103.089,147.234 103.923,142.234 105.5,137.5 Z"/></g>
<g><path style="opacity:0.868" fill="#96d4e3" d="M 54.5,151.5 C 54.5,157.167 54.5,162.833 54.5,168.5C 53.4161,171.004 52.0828,173.337 50.5,175.5C 50.5,169.833 50.5,164.167 50.5,158.5C 51.0787,155.669 52.412,153.336 54.5,151.5 Z"/></g>
<g><path style="opacity:0.741" fill="#66c5db" d="M 113.5,151.5 C 115.234,154.2 117.568,156.2 120.5,157.5C 120.5,185.833 120.5,214.167 120.5,242.5C 117.888,243.779 115.555,245.445 113.5,247.5C 113.5,243.833 113.5,240.167 113.5,236.5C 117.83,232.668 119.83,227.834 119.5,222C 119.434,204.528 119.267,187.028 119,169.5C 118.294,166.393 116.461,164.393 113.5,163.5C 113.5,159.5 113.5,155.5 113.5,151.5 Z"/></g>
<g><path style="opacity:0.915" fill="#60c3d9" d="M 132.5,153.5 C 132.5,156.833 132.5,160.167 132.5,163.5C 131.164,165.01 129.997,166.677 129,168.5C 127.824,188.156 127.49,207.823 128,227.5C 128.451,230.778 129.951,233.444 132.5,235.5C 132.5,238.833 132.5,242.167 132.5,245.5C 129.554,243.369 126.221,242.369 122.5,242.5C 122.5,214.167 122.5,185.833 122.5,157.5C 126.436,157.525 129.77,156.191 132.5,153.5 Z"/></g>
<g><path style="opacity:0.872" fill="#79cade" d="M 98.5,157.5 C 98.5,160.833 98.5,164.167 98.5,167.5C 96.3649,169.071 94.0316,170.404 91.5,171.5C 91.5,168.167 91.5,164.833 91.5,161.5C 93.3356,159.412 95.6689,158.079 98.5,157.5 Z"/></g>
<g><path style="opacity:0.988" fill="#63c5da" d="M 120.5,157.5 C 121.167,157.5 121.833,157.5 122.5,157.5C 122.5,185.833 122.5,214.167 122.5,242.5C 121.833,242.5 121.167,242.5 120.5,242.5C 120.5,214.167 120.5,185.833 120.5,157.5 Z"/></g>
<g><path style="opacity:0.911" fill="#99d5e5" d="M 50.5,158.5 C 50.5,164.167 50.5,169.833 50.5,175.5C 49.1932,178.114 47.8599,180.78 46.5,183.5C 47.6998,184.292 49.0331,184.292 50.5,183.5C 50.5,187.5 50.5,191.5 50.5,195.5C 46.6073,200.761 46.6073,206.094 50.5,211.5C 50.5,214.833 50.5,218.167 50.5,221.5C 48.2779,220.312 45.9446,219.312 43.5,218.5C 43.5,202.5 43.5,186.5 43.5,170.5C 45.332,166.164 47.6654,162.164 50.5,158.5 Z"/></g>
<g><path style="opacity:0.842" fill="#51bcd3" d="M 151.5,158.5 C 152.492,158.328 153.158,158.662 153.5,159.5C 153.5,162.833 153.5,166.167 153.5,169.5C 152.508,169.672 151.842,169.338 151.5,168.5C 151.5,165.167 151.5,161.833 151.5,158.5 Z"/></g>
<g><path style="opacity:0.849" fill="#4dbad3" d="M 153.5,159.5 C 157.054,160.769 160.054,162.769 162.5,165.5C 162.5,168.833 162.5,172.167 162.5,175.5C 159.291,173.735 156.291,171.735 153.5,169.5C 153.5,166.167 153.5,162.833 153.5,159.5 Z"/></g>
<g><path style="opacity:0.864" fill="#7fccdf" d="M 91.5,161.5 C 91.5,164.833 91.5,168.167 91.5,171.5C 88.8695,173.153 86.2028,174.819 83.5,176.5C 83.5,172.833 83.5,169.167 83.5,165.5C 86.1932,164.153 88.8599,162.82 91.5,161.5 Z"/></g>
<g><path style="opacity:0.851" fill="#47b8d1" d="M 162.5,165.5 C 165.331,166.079 167.664,167.412 169.5,169.5C 169.5,172.833 169.5,176.167 169.5,179.5C 167.167,178.167 164.833,176.833 162.5,175.5C 162.5,172.167 162.5,168.833 162.5,165.5 Z"/></g>
<g><path style="opacity:0.731" fill="#22adc8" d="M 213.5,165.5 C 213.5,173.167 213.5,180.833 213.5,188.5C 210.566,189.639 207.9,191.306 205.5,193.5C 205.5,190.167 205.5,186.833 205.5,183.5C 208.34,182.314 210.506,180.314 212,177.5C 212.176,173.312 212.676,169.312 213.5,165.5 Z"/></g>
<g><path style="opacity:0.867" fill="#84cde0" d="M 83.5,165.5 C 83.5,169.167 83.5,172.833 83.5,176.5C 81.9505,177.441 80.2838,178.107 78.5,178.5C 78.5,175.167 78.5,171.833 78.5,168.5C 80.0009,167.248 81.6675,166.248 83.5,165.5 Z"/></g>
<g><path style="opacity:0.866" fill="#88cfe0" d="M 78.5,168.5 C 78.5,171.833 78.5,175.167 78.5,178.5C 77.205,179.488 75.8717,180.488 74.5,181.5C 74.5,177.833 74.5,174.167 74.5,170.5C 75.8333,169.833 77.1667,169.167 78.5,168.5 Z"/></g>
<g><path style="opacity:0.856" fill="#40b6cf" d="M 169.5,169.5 C 172.661,170.913 175.661,172.58 178.5,174.5C 178.5,178.167 178.5,181.833 178.5,185.5C 175.5,183.5 172.5,181.5 169.5,179.5C 169.5,176.167 169.5,172.833 169.5,169.5 Z"/></g>
<g><path style="opacity:0.868" fill="#8cd0e2" d="M 74.5,170.5 C 74.5,174.167 74.5,177.833 74.5,181.5C 70.8333,183.5 67.1667,185.5 63.5,187.5C 63.5,183.833 63.5,180.167 63.5,176.5C 67.1667,174.5 70.8333,172.5 74.5,170.5 Z"/></g>
<g><path style="opacity:0.865" fill="#15a9c4" d="M 221.5,172.5 C 223.08,178.327 225.747,183.66 229.5,188.5C 229.5,196.833 229.5,205.167 229.5,213.5C 227.807,216.682 225.141,218.348 221.5,218.5C 221.5,215.5 221.5,212.5 221.5,209.5C 224.068,206.867 225.734,203.7 226.5,200C 225.734,196.3 224.068,193.133 221.5,190.5C 221.5,184.5 221.5,178.5 221.5,172.5 Z"/></g>
<g><path style="opacity:0.841" fill="#3cb5ce" d="M 178.5,174.5 C 179.5,175.167 180.5,175.833 181.5,176.5C 181.5,180.167 181.5,183.833 181.5,187.5C 180.5,186.833 179.5,186.167 178.5,185.5C 178.5,181.833 178.5,178.167 178.5,174.5 Z"/></g>
<g><path style="opacity:0.886" fill="#92d2e3" d="M 63.5,176.5 C 63.5,180.167 63.5,183.833 63.5,187.5C 60.6612,189.42 57.6612,191.087 54.5,192.5C 54.5,188.833 54.5,185.167 54.5,181.5C 57.3037,179.595 60.3037,177.929 63.5,176.5 Z"/></g>
<g><path style="opacity:0.865" fill="#39b4cd" d="M 181.5,176.5 C 183.001,177.752 184.668,178.752 186.5,179.5C 186.5,183.167 186.5,186.833 186.5,190.5C 184.668,189.752 183.001,188.752 181.5,187.5C 181.5,183.833 181.5,180.167 181.5,176.5 Z"/></g>
<g><path style="opacity:0.851" fill="#a8dae7" d="M 22.5,178.5 C 22.5,182.5 22.5,186.5 22.5,190.5C 21.8333,190.833 21.1667,191.167 20.5,191.5C 20.5,187.833 20.5,184.167 20.5,180.5C 20.8333,179.5 21.5,178.833 22.5,178.5 Z"/></g>
<g><path style="opacity:0.864" fill="#35b2cc" d="M 186.5,179.5 C 188.001,180.752 189.668,181.752 191.5,182.5C 191.5,186.5 191.5,190.5 191.5,194.5C 189.809,193.136 188.142,191.803 186.5,190.5C 186.5,186.833 186.5,183.167 186.5,179.5 Z"/></g>
<g><path style="opacity:0.892" fill="#acdbe8" d="M 20.5,180.5 C 20.5,184.167 20.5,187.833 20.5,191.5C 15.4531,197.221 15.4531,202.888 20.5,208.5C 20.5,211.833 20.5,215.167 20.5,218.5C 16.5071,217.349 13.5071,215.015 11.5,211.5C 11.5,204.167 11.5,196.833 11.5,189.5C 13.5,185.5 16.5,182.5 20.5,180.5 Z"/></g>
<g><path style="opacity:0.875" fill="#96d4e3" d="M 54.5,181.5 C 54.5,185.167 54.5,188.833 54.5,192.5C 53.205,193.488 51.8717,194.488 50.5,195.5C 50.5,191.5 50.5,187.5 50.5,183.5C 51.5137,182.326 52.847,181.66 54.5,181.5 Z"/></g>
<g><path style="opacity:0.851" fill="#31b2cc" d="M 191.5,182.5 C 192.5,182.833 193.167,183.5 193.5,184.5C 193.5,188.833 193.5,193.167 193.5,197.5C 192.599,196.71 191.932,195.71 191.5,194.5C 191.5,190.5 191.5,186.5 191.5,182.5 Z"/></g>
<g><path style="opacity:0.916" fill="#29afc9" d="M 205.5,183.5 C 205.5,186.833 205.5,190.167 205.5,193.5C 202.919,198.132 202.919,202.798 205.5,207.5C 205.5,211.5 205.5,215.5 205.5,219.5C 203.621,220.341 201.621,220.675 199.5,220.5C 199.5,208.833 199.5,197.167 199.5,185.5C 201.5,184.833 203.5,184.167 205.5,183.5 Z"/></g>
<g><path style="opacity:0.907" fill="#2eb0ca" d="M 193.5,184.5 C 195.435,185.15 197.435,185.483 199.5,185.5C 199.5,197.167 199.5,208.833 199.5,220.5C 197.574,221.486 195.574,222.486 193.5,223.5C 193.5,220.167 193.5,216.833 193.5,213.5C 194.8,212.173 196.133,210.84 197.5,209.5C 195.961,205.55 194.628,201.55 193.5,197.5C 193.5,193.167 193.5,188.833 193.5,184.5 Z"/></g>
<g><path style="opacity:0.824" fill="#10a7c3" d="M 229.5,188.5 C 234.686,195.616 235.52,203.283 232,211.5C 231.292,212.381 230.458,213.047 229.5,213.5C 229.5,205.167 229.5,196.833 229.5,188.5 Z"/></g>
<g><path style="opacity:0.809" fill="#afdde9" d="M 11.5,189.5 C 11.5,196.833 11.5,204.167 11.5,211.5C 9.10736,208.149 8.10736,204.316 8.5,200C 8.05755,195.965 9.05755,192.465 11.5,189.5 Z"/></g>
<g><path style="opacity:0.913" fill="#23adc8" d="M 205.5,207.5 C 207.883,209.358 210.55,210.692 213.5,211.5C 213.5,214.167 213.5,216.833 213.5,219.5C 210.833,219.5 208.167,219.5 205.5,219.5C 205.5,215.5 205.5,211.5 205.5,207.5 Z"/></g>
<g><path style="opacity:0.885" fill="#1cabc6" d="M 221.5,209.5 C 221.5,212.5 221.5,215.5 221.5,218.5C 219.052,219.473 216.385,219.806 213.5,219.5C 213.5,216.833 213.5,214.167 213.5,211.5C 216.421,211.717 219.087,211.051 221.5,209.5 Z"/></g>
<g><path style="opacity:0.898" fill="#a8dae7" d="M 20.5,208.5 C 22.0009,209.752 23.6675,210.752 25.5,211.5C 25.5,214.5 25.5,217.5 25.5,220.5C 23.6943,219.976 22.0276,219.309 20.5,218.5C 20.5,215.167 20.5,211.833 20.5,208.5 Z"/></g>
<g><path style="opacity:0.849" fill="#a4d8e7" d="M 32.5,210.5 C 32.5,213.5 32.5,216.5 32.5,219.5C 30.3926,220.468 28.0593,220.802 25.5,220.5C 25.5,217.5 25.5,214.5 25.5,211.5C 27.9496,211.702 30.283,211.369 32.5,210.5 Z"/></g>
<g><path style="opacity:0.881" fill="#96d4e3" d="M 50.5,211.5 C 51.8333,212.167 53.1667,212.833 54.5,213.5C 54.5,216.833 54.5,220.167 54.5,223.5C 52.847,223.34 51.5137,222.674 50.5,221.5C 50.5,218.167 50.5,214.833 50.5,211.5 Z"/></g>
<g><path style="opacity:0.863" fill="#92d2e3" d="M 54.5,213.5 C 57.7089,215.265 60.7089,217.265 63.5,219.5C 63.5,222.5 63.5,225.5 63.5,228.5C 60.0078,227.59 57.0078,225.924 54.5,223.5C 54.5,220.167 54.5,216.833 54.5,213.5 Z"/></g>
<g><path style="opacity:0.871" fill="#31b2cc" d="M 193.5,213.5 C 193.5,216.833 193.5,220.167 193.5,223.5C 192.833,223.833 192.167,224.167 191.5,224.5C 191.5,221.167 191.5,217.833 191.5,214.5C 191.842,213.662 192.508,213.328 193.5,213.5 Z"/></g>
<g><path style="opacity:0.862" fill="#35b2cc" d="M 191.5,214.5 C 191.5,217.833 191.5,221.167 191.5,224.5C 189.95,225.441 188.284,226.107 186.5,226.5C 186.5,223.5 186.5,220.5 186.5,217.5C 187.659,215.75 189.326,214.75 191.5,214.5 Z"/></g>
<g><path style="opacity:0.859" fill="#39b4cd" d="M 186.5,217.5 C 186.5,220.5 186.5,223.5 186.5,226.5C 185.341,228.25 183.674,229.25 181.5,229.5C 181.5,226.167 181.5,222.833 181.5,219.5C 183.05,218.559 184.716,217.893 186.5,217.5 Z"/></g>
<g><path style="opacity:0.854" fill="#8cd0e2" d="M 63.5,219.5 C 67.3346,221.25 71.0012,223.25 74.5,225.5C 74.5,228.833 74.5,232.167 74.5,235.5C 70.6277,233.403 66.961,231.069 63.5,228.5C 63.5,225.5 63.5,222.5 63.5,219.5 Z"/></g>
<g><path style="opacity:0.866" fill="#3cb5ce" d="M 181.5,219.5 C 181.5,222.833 181.5,226.167 181.5,229.5C 180.71,230.401 179.71,231.068 178.5,231.5C 178.5,228.167 178.5,224.833 178.5,221.5C 179.5,220.833 180.5,220.167 181.5,219.5 Z"/></g>
<g><path style="opacity:0.854" fill="#40b6cf" d="M 178.5,221.5 C 178.5,224.833 178.5,228.167 178.5,231.5C 175.76,233.56 172.76,235.226 169.5,236.5C 169.5,233.167 169.5,229.833 169.5,226.5C 172.661,225.087 175.661,223.42 178.5,221.5 Z"/></g>
<g><path style="opacity:0.861" fill="#88cfe0" d="M 74.5,225.5 C 75.8333,226.167 77.1667,226.833 78.5,227.5C 78.5,230.833 78.5,234.167 78.5,237.5C 76.9382,237.267 75.6049,236.6 74.5,235.5C 74.5,232.167 74.5,228.833 74.5,225.5 Z"/></g>
<g><path style="opacity:0.861" fill="#47b8d1" d="M 169.5,226.5 C 169.5,229.833 169.5,233.167 169.5,236.5C 167.664,238.588 165.331,239.921 162.5,240.5C 162.5,237.167 162.5,233.833 162.5,230.5C 164.996,229.42 167.33,228.086 169.5,226.5 Z"/></g>
<g><path style="opacity:0.858" fill="#84cde0" d="M 78.5,227.5 C 80.0009,228.752 81.6675,229.752 83.5,230.5C 83.5,233.833 83.5,237.167 83.5,240.5C 81.6316,239.737 79.9649,238.737 78.5,237.5C 78.5,234.167 78.5,230.833 78.5,227.5 Z"/></g>
<g><path style="opacity:0.861" fill="#7fccdf" d="M 83.5,230.5 C 86.2028,232.181 88.8695,233.847 91.5,235.5C 91.5,238.833 91.5,242.167 91.5,245.5C 88.7972,243.819 86.1305,242.153 83.5,240.5C 83.5,237.167 83.5,233.833 83.5,230.5 Z"/></g>
<g><path style="opacity:0.852" fill="#4dbad3" d="M 162.5,230.5 C 162.5,233.833 162.5,237.167 162.5,240.5C 159.709,242.735 156.709,244.735 153.5,246.5C 153.5,243.167 153.5,239.833 153.5,236.5C 156.291,234.265 159.291,232.265 162.5,230.5 Z"/></g>
<g><path style="opacity:0.855" fill="#79cade" d="M 91.5,235.5 C 94.0041,236.584 96.3374,237.917 98.5,239.5C 98.5,243.167 98.5,246.833 98.5,250.5C 96.305,248.576 93.9717,246.909 91.5,245.5C 91.5,242.167 91.5,238.833 91.5,235.5 Z"/></g>
<g><path style="opacity:0.901" fill="#5ac0d7" d="M 132.5,235.5 C 135.833,237.833 139.167,240.167 142.5,242.5C 142.5,248.5 142.5,254.5 142.5,260.5C 141.22,266.077 137.887,269.744 132.5,271.5C 132.5,268.167 132.5,264.833 132.5,261.5C 136.367,256.168 136.367,250.835 132.5,245.5C 132.5,242.167 132.5,238.833 132.5,235.5 Z"/></g>
<g><path style="opacity:0.9" fill="#6cc7db" d="M 113.5,236.5 C 113.5,240.167 113.5,243.833 113.5,247.5C 112.167,251.5 112.167,255.5 113.5,259.5C 113.5,263.5 113.5,267.5 113.5,271.5C 111.167,269.833 109.167,267.833 107.5,265.5C 107.5,257.5 107.5,249.5 107.5,241.5C 109.46,239.844 111.46,238.177 113.5,236.5 Z"/></g>
<g><path style="opacity:0.874" fill="#51bcd3" d="M 153.5,236.5 C 153.5,239.833 153.5,243.167 153.5,246.5C 152.833,246.833 152.167,247.167 151.5,247.5C 151.5,244.167 151.5,240.833 151.5,237.5C 151.842,236.662 152.508,236.328 153.5,236.5 Z"/></g>
<g><path style="opacity:0.86" fill="#55bdd5" d="M 151.5,237.5 C 151.5,240.833 151.5,244.167 151.5,247.5C 147.333,251.004 144.333,255.338 142.5,260.5C 142.5,254.5 142.5,248.5 142.5,242.5C 145.331,240.583 148.331,238.917 151.5,237.5 Z"/></g>
<g><path style="opacity:0.868" fill="#73c8dd" d="M 98.5,239.5 C 100.746,240.455 103.079,241.122 105.5,241.5C 105.5,248.167 105.5,254.833 105.5,261.5C 103.43,257.7 101.097,254.034 98.5,250.5C 98.5,246.833 98.5,243.167 98.5,239.5 Z"/></g>
<g><path style="opacity:0.926" fill="#70c8dc" d="M 105.5,241.5 C 106.167,241.5 106.833,241.5 107.5,241.5C 107.5,249.5 107.5,257.5 107.5,265.5C 106.326,264.486 105.66,263.153 105.5,261.5C 105.5,254.833 105.5,248.167 105.5,241.5 Z"/></g>
<g><path style="opacity:0.847" fill="#67c5db" d="M 113.5,259.5 C 115.573,261.58 117.907,263.246 120.5,264.5C 120.5,267.5 120.5,270.5 120.5,273.5C 117.921,273.606 115.588,272.939 113.5,271.5C 113.5,267.5 113.5,263.5 113.5,259.5 Z"/></g>
<g><path style="opacity:0.897" fill="#5fc2d9" d="M 132.5,261.5 C 132.5,264.833 132.5,268.167 132.5,271.5C 132.082,272.222 131.416,272.722 130.5,273C 127.854,273.497 125.187,273.664 122.5,273.5C 122.5,270.833 122.5,268.167 122.5,265.5C 126.293,265.269 129.626,263.935 132.5,261.5 Z"/></g>
<g><path style="opacity:0.913" fill="#63c5da" d="M 120.5,264.5 C 121.167,264.833 121.833,265.167 122.5,265.5C 122.5,268.167 122.5,270.833 122.5,273.5C 121.833,273.5 121.167,273.5 120.5,273.5C 120.5,270.5 120.5,267.5 120.5,264.5 Z"/></g>
</svg>
